<?xml version="1.0" encoding="utf-8" standalone="no"?>
<!DOCTYPE svg PUBLIC "-//W3C//DTD SVG 1.1//EN"
  "http://www.w3.org/Graphics/SVG/1.1/DTD/svg11.dtd">
<!-- Created with matplotlib (http://matplotlib.org/) -->
<svg height="432pt" version="1.1" viewBox="0 0 266 432" width="266pt" xmlns="http://www.w3.org/2000/svg" xmlns:xlink="http://www.w3.org/1999/xlink">
 <defs>
  <style type="text/css">
*{stroke-linecap:square;stroke-linejoin:round;}
  </style>
 </defs>
 <g id="figure_1">
  <g id="patch_1">
   <path d="
M0 432
L266.4 432
L266.4 0
L0 0
z
" style="fill:none;opacity:0.0;"/>
  </g>
  <g id="axes_1">
   <g id="patch_2">
    <path d="
M58.1431 102.433
L260.9 102.433
L260.9 5.5
L58.1431 5.5
z
" style="fill:none;opacity:0.0;"/>
   </g>
   <g id="patch_3">
    <path clip-path="url(#pc378b10156)" d="
M67.3593 100.87
L67.3593 89.1247
L71.6551 89.1247
L71.6551 81.8966
L75.9509 81.8966
L75.9509 57.5015
L80.2466 57.5015
L80.2466 44.8523
L84.5424 44.8523
L84.5424 14.1326
L88.8381 14.1326
L88.8381 7.80794
L93.1339 7.80794
L93.1339 39.4311
L97.4296 39.4311
L97.4296 43.9487
L101.725 43.9487
L101.725 66.5367
L106.021 66.5367
L106.021 73.7649
L110.317 73.7649
L110.317 86.4142
L114.613 86.4142
L114.613 82.8001
L118.908 82.8001
L118.908 89.1247
L123.204 89.1247
L123.204 93.6423
L127.5 93.6423
L127.5 94.5458
L131.796 94.5458
L131.796 93.6423
L136.091 93.6423
L136.091 96.3529
L140.387 96.3529
L140.387 94.5458
L144.683 94.5458
L144.683 97.2564
L148.979 97.2564
L148.979 98.1599
L153.274 98.1599
L153.274 96.3529
L157.57 96.3529
L157.57 97.2564
L161.866 97.2564
L161.866 96.3529
L166.162 96.3529
L166.162 96.3529
L170.457 96.3529
L170.457 99.967
L174.753 99.967
L174.753 98.1599
L179.049 98.1599
L179.049 98.1599
L183.345 98.1599
L183.345 96.3529
L187.641 96.3529
L187.641 98.1599
L191.936 98.1599
L191.936 100.87
L196.232 100.87
L196.232 98.1599
L200.528 98.1599
L200.528 98.1599
L204.824 98.1599
L204.824 95.4494
L209.119 95.4494
L209.119 97.2564
L213.415 97.2564
L213.415 96.3529
L217.711 96.3529
L217.711 99.0634
L222.007 99.0634
L222.007 96.3529
L226.302 96.3529
L226.302 87.3177
L230.598 87.3177
L230.598 93.6423
L234.894 93.6423
L234.894 97.2564
L239.19 97.2564
L239.19 100.87" style="fill:none;stroke:#0000ff;"/>
   </g>
   <g id="patch_4">
    <path clip-path="url(#pc378b10156)" d="
M72.2169 100.87
L72.2169 88.7079
L76.7035 88.7079
L76.7035 63.6674
L81.1902 63.6674
L81.1902 69.3909
L85.6769 69.3909
L85.6769 85.1307
L90.1636 85.1307
L90.1636 99.4396
L94.6502 99.4396
L94.6502 98.7242
L99.1369 98.7242
L99.1369 99.4396
L103.624 99.4396
L103.624 97.2933
L108.11 97.2933
L108.11 97.2933
L112.597 97.2933
L112.597 96.5778
L117.084 96.5778
L117.084 97.2933
L121.57 97.2933
L121.57 97.2933
L126.057 97.2933
L126.057 95.8624
L130.544 95.8624
L130.544 93.0006
L135.03 93.0006
L135.03 95.8624
L139.517 95.8624
L139.517 95.1469
L144.004 95.1469
L144.004 94.4315
L148.49 94.4315
L148.49 90.8543
L152.977 90.8543
L152.977 83.6998
L157.464 83.6998
L157.464 89.4234
L161.95 89.4234
L161.95 88.7079
L166.437 88.7079
L166.437 89.4234
L170.924 89.4234
L170.924 82.2689
L175.41 82.2689
L175.41 82.9844
L179.897 82.9844
L179.897 85.1307
L184.384 85.1307
L184.384 86.5616
L188.87 86.5616
L188.87 85.1307
L193.357 85.1307
L193.357 75.1145
L197.844 75.1145
L197.844 75.1145
L202.33 75.1145
L202.33 79.4072
L206.817 79.4072
L206.817 76.5454
L211.304 76.5454
L211.304 75.8299
L215.79 75.8299
L215.79 67.96
L220.277 67.96
L220.277 67.96
L224.764 67.96
L224.764 59.3747
L229.25 59.3747
L229.25 58.6593
L233.737 58.6593
L233.737 70.8218
L238.224 70.8218
L238.224 81.5535
L242.71 81.5535
L242.71 93.716
L247.197 93.716
L247.197 99.4396
L251.684 99.4396
L251.684 100.87" style="fill:none;stroke:#008000;"/>
   </g>
   <g id="patch_5">
    <path clip-path="url(#pc378b10156)" d="
M74.3487 100.87
L74.3487 71.0669
L78.2938 71.0669
L78.2938 67.7554
L82.2389 67.7554
L82.2389 61.1324
L86.1841 61.1324
L86.1841 88.4523
L90.1292 88.4523
L90.1292 87.6245
L94.0743 87.6245
L94.0743 84.3129
L98.0195 84.3129
L98.0195 85.1408
L101.965 85.1408
L101.965 79.3457
L105.91 79.3457
L105.91 63.616
L109.855 63.616
L109.855 55.3373
L113.8 55.3373
L113.8 44.5749
L117.745 44.5749
L117.745 47.8864
L121.69 47.8864
L121.69 43.747
L125.635 43.747
L125.635 57.8209
L129.581 57.8209
L129.581 61.9603
L133.526 61.9603
L133.526 63.616
L137.471 63.616
L137.471 75.2063
L141.416 75.2063
L141.416 78.5178
L145.361 78.5178
L145.361 81.8293
L149.306 81.8293
L149.306 89.2802
L153.251 89.2802
L153.251 90.936
L157.196 90.936
L157.196 90.936
L161.142 90.936
L161.142 95.0753
L165.087 95.0753
L165.087 93.4196
L169.032 93.4196
L169.032 96.7311
L172.977 96.7311
L172.977 96.7311
L176.922 96.7311
L176.922 94.2475
L180.867 94.2475
L180.867 96.7311
L184.812 96.7311
L184.812 97.559
L188.757 97.559
L188.757 95.9032
L192.703 95.9032
L192.703 97.559
L196.648 97.559
L196.648 97.559
L200.593 97.559
L200.593 98.3869
L204.538 98.3869
L204.538 98.3869
L208.483 98.3869
L208.483 99.2147
L212.428 99.2147
L212.428 99.2147
L216.373 99.2147
L216.373 100.87
L220.319 100.87
L220.319 100.043
L224.264 100.043
L224.264 97.559
L228.209 97.559
L228.209 99.2147
L232.154 99.2147
L232.154 100.87" style="fill:none;stroke:#ff0000;"/>
   </g>
   <g id="matplotlib.axis_1">
    <g id="xtick_1">
     <g id="line2d_1">
      <defs>
       <path d="
M0 0
L0 6" id="m647e85b279" style="stroke:#000000;stroke-linecap:butt;"/>
      </defs>
      <g>
       <use style="stroke:#000000;stroke-linecap:butt;" x="64.7626198134" xlink:href="#m647e85b279" y="102.433333333"/>
      </g>
     </g>
     <g id="text_1">
      <!-- −0.5 -->
      <defs>
       <path d="
M10.5938 35.5
L73.1875 35.5
L73.1875 27.2031
L10.5938 27.2031
z
" id="BitstreamVeraSans-Roman-2212"/>
       <path d="
M31.7812 66.4062
Q24.1719 66.4062 20.3281 58.9062
Q16.5 51.4219 16.5 36.375
Q16.5 21.3906 20.3281 13.8906
Q24.1719 6.39062 31.7812 6.39062
Q39.4531 6.39062 43.2812 13.8906
Q47.125 21.3906 47.125 36.375
Q47.125 51.4219 43.2812 58.9062
Q39.4531 66.4062 31.7812 66.4062
M31.7812 74.2188
Q44.0469 74.2188 50.5156 64.5156
Q56.9844 54.8281 56.9844 36.375
Q56.9844 17.9688 50.5156 8.26562
Q44.0469 -1.42188 31.7812 -1.42188
Q19.5312 -1.42188 13.0625 8.26562
Q6.59375 17.9688 6.59375 36.375
Q6.59375 54.8281 13.0625 64.5156
Q19.5312 74.2188 31.7812 74.2188" id="BitstreamVeraSans-Roman-30"/>
       <path d="
M10.6875 12.4062
L21 12.4062
L21 0
L10.6875 0
z
" id="BitstreamVeraSans-Roman-2e"/>
       <path d="
M10.7969 72.9062
L49.5156 72.9062
L49.5156 64.5938
L19.8281 64.5938
L19.8281 46.7344
Q21.9688 47.4688 24.1094 47.8281
Q26.2656 48.1875 28.4219 48.1875
Q40.625 48.1875 47.75 41.5
Q54.8906 34.8125 54.8906 23.3906
Q54.8906 11.625 47.5625 5.09375
Q40.2344 -1.42188 26.9062 -1.42188
Q22.3125 -1.42188 17.5469 -0.640625
Q12.7969 0.140625 7.71875 1.70312
L7.71875 11.625
Q12.1094 9.23438 16.7969 8.0625
Q21.4844 6.89062 26.7031 6.89062
Q35.1562 6.89062 40.0781 11.3281
Q45.0156 15.7656 45.0156 23.3906
Q45.0156 31 40.0781 35.4375
Q35.1562 39.8906 26.7031 39.8906
Q22.75 39.8906 18.8125 39.0156
Q14.8906 38.1406 10.7969 36.2812
z
" id="BitstreamVeraSans-Roman-35"/>
      </defs>
      <g transform="translate(52.4701198134 120.597395833)scale(0.11 -0.11)">
       <use xlink:href="#BitstreamVeraSans-Roman-2212"/>
       <use x="83.7890625" xlink:href="#BitstreamVeraSans-Roman-30"/>
       <use x="147.412109375" xlink:href="#BitstreamVeraSans-Roman-2e"/>
       <use x="179.19921875" xlink:href="#BitstreamVeraSans-Roman-35"/>
      </g>
     </g>
    </g>
    <g id="xtick_2">
     <g id="line2d_2">
      <g>
       <use style="stroke:#000000;stroke-linecap:butt;" x="121.868923616" xlink:href="#m647e85b279" y="102.433333333"/>
      </g>
     </g>
     <g id="text_2">
      <!-- 0.0 -->
      <g transform="translate(113.850095491 120.597395833)scale(0.11 -0.11)">
       <use xlink:href="#BitstreamVeraSans-Roman-30"/>
       <use x="63.623046875" xlink:href="#BitstreamVeraSans-Roman-2e"/>
       <use x="95.41015625" xlink:href="#BitstreamVeraSans-Roman-30"/>
      </g>
     </g>
    </g>
    <g id="xtick_3">
     <g id="line2d_3">
      <g>
       <use style="stroke:#000000;stroke-linecap:butt;" x="178.975227419" xlink:href="#m647e85b279" y="102.433333333"/>
      </g>
     </g>
     <g id="text_3">
      <!-- 0.5 -->
      <g transform="translate(171.071555544 120.597395833)scale(0.11 -0.11)">
       <use xlink:href="#BitstreamVeraSans-Roman-30"/>
       <use x="63.623046875" xlink:href="#BitstreamVeraSans-Roman-2e"/>
       <use x="95.41015625" xlink:href="#BitstreamVeraSans-Roman-35"/>
      </g>
     </g>
    </g>
    <g id="xtick_4">
     <g id="line2d_4">
      <g>
       <use style="stroke:#000000;stroke-linecap:butt;" x="236.081531222" xlink:href="#m647e85b279" y="102.433333333"/>
      </g>
     </g>
     <g id="text_4">
      <!-- 1.0 -->
      <defs>
       <path d="
M12.4062 8.29688
L28.5156 8.29688
L28.5156 63.9219
L10.9844 60.4062
L10.9844 69.3906
L28.4219 72.9062
L38.2812 72.9062
L38.2812 8.29688
L54.3906 8.29688
L54.3906 0
L12.4062 0
z
" id="BitstreamVeraSans-Roman-31"/>
      </defs>
      <g transform="translate(228.304187472 120.597395833)scale(0.11 -0.11)">
       <use xlink:href="#BitstreamVeraSans-Roman-31"/>
       <use x="63.623046875" xlink:href="#BitstreamVeraSans-Roman-2e"/>
       <use x="95.41015625" xlink:href="#BitstreamVeraSans-Roman-30"/>
      </g>
     </g>
    </g>
    <g id="xtick_5">
     <g id="line2d_5">
      <defs>
       <path d="
M0 0
L0 4" id="m61903a1917" style="stroke:#000000;stroke-linecap:butt;"/>
      </defs>
      <g>
       <use style="stroke:#000000;stroke-linecap:butt;" x="93.3157717148" xlink:href="#m61903a1917" y="102.433333333"/>
      </g>
     </g>
    </g>
    <g id="xtick_6">
     <g id="line2d_6">
      <g>
       <use style="stroke:#000000;stroke-linecap:butt;" x="150.422075518" xlink:href="#m61903a1917" y="102.433333333"/>
      </g>
     </g>
    </g>
    <g id="xtick_7">
     <g id="line2d_7">
      <g>
       <use style="stroke:#000000;stroke-linecap:butt;" x="207.52837932" xlink:href="#m61903a1917" y="102.433333333"/>
      </g>
     </g>
    </g>
    <g id="text_5">
     <!-- Gridness score -->
     <defs>
      <path id="BitstreamVeraSans-Roman-20"/>
      <path d="
M54.8906 33.0156
L54.8906 0
L45.9062 0
L45.9062 32.7188
Q45.9062 40.4844 42.875 44.3281
Q39.8438 48.1875 33.7969 48.1875
Q26.5156 48.1875 22.3125 43.5469
Q18.1094 38.9219 18.1094 30.9062
L18.1094 0
L9.07812 0
L9.07812 54.6875
L18.1094 54.6875
L18.1094 46.1875
Q21.3438 51.125 25.7031 53.5625
Q30.0781 56 35.7969 56
Q45.2188 56 50.0469 50.1719
Q54.8906 44.3438 54.8906 33.0156" id="BitstreamVeraSans-Roman-6e"/>
      <path d="
M30.6094 48.3906
Q23.3906 48.3906 19.1875 42.75
Q14.9844 37.1094 14.9844 27.2969
Q14.9844 17.4844 19.1562 11.8438
Q23.3438 6.20312 30.6094 6.20312
Q37.7969 6.20312 41.9844 11.8594
Q46.1875 17.5312 46.1875 27.2969
Q46.1875 37.0156 41.9844 42.7031
Q37.7969 48.3906 30.6094 48.3906
M30.6094 56
Q42.3281 56 49.0156 48.375
Q55.7188 40.7656 55.7188 27.2969
Q55.7188 13.875 49.0156 6.21875
Q42.3281 -1.42188 30.6094 -1.42188
Q18.8438 -1.42188 12.1719 6.21875
Q5.51562 13.875 5.51562 27.2969
Q5.51562 40.7656 12.1719 48.375
Q18.8438 56 30.6094 56" id="BitstreamVeraSans-Roman-6f"/>
      <path d="
M59.5156 10.4062
L59.5156 29.9844
L43.4062 29.9844
L43.4062 38.0938
L69.2812 38.0938
L69.2812 6.78125
Q63.5781 2.73438 56.6875 0.65625
Q49.8125 -1.42188 42 -1.42188
Q24.9062 -1.42188 15.25 8.5625
Q5.60938 18.5625 5.60938 36.375
Q5.60938 54.25 15.25 64.2344
Q24.9062 74.2188 42 74.2188
Q49.125 74.2188 55.5469 72.4531
Q61.9688 70.7031 67.3906 67.2812
L67.3906 56.7812
Q61.9219 61.4219 55.7656 63.7656
Q49.6094 66.1094 42.8281 66.1094
Q29.4375 66.1094 22.7188 58.6406
Q16.0156 51.1719 16.0156 36.375
Q16.0156 21.625 22.7188 14.1562
Q29.4375 6.6875 42.8281 6.6875
Q48.0469 6.6875 52.1406 7.59375
Q56.25 8.5 59.5156 10.4062" id="BitstreamVeraSans-Roman-47"/>
      <path d="
M9.42188 54.6875
L18.4062 54.6875
L18.4062 0
L9.42188 0
z

M9.42188 75.9844
L18.4062 75.9844
L18.4062 64.5938
L9.42188 64.5938
z
" id="BitstreamVeraSans-Roman-69"/>
      <path d="
M56.2031 29.5938
L56.2031 25.2031
L14.8906 25.2031
Q15.4844 15.9219 20.4844 11.0625
Q25.4844 6.20312 34.4219 6.20312
Q39.5938 6.20312 44.4531 7.46875
Q49.3125 8.73438 54.1094 11.2812
L54.1094 2.78125
Q49.2656 0.734375 44.1875 -0.34375
Q39.1094 -1.42188 33.8906 -1.42188
Q20.7969 -1.42188 13.1562 6.1875
Q5.51562 13.8125 5.51562 26.8125
Q5.51562 40.2344 12.7656 48.1094
Q20.0156 56 32.3281 56
Q43.3594 56 49.7812 48.8906
Q56.2031 41.7969 56.2031 29.5938
M47.2188 32.2344
Q47.125 39.5938 43.0938 43.9844
Q39.0625 48.3906 32.4219 48.3906
Q24.9062 48.3906 20.3906 44.1406
Q15.875 39.8906 15.1875 32.1719
z
" id="BitstreamVeraSans-Roman-65"/>
      <path d="
M45.4062 46.3906
L45.4062 75.9844
L54.3906 75.9844
L54.3906 0
L45.4062 0
L45.4062 8.20312
Q42.5781 3.32812 38.25 0.953125
Q33.9375 -1.42188 27.875 -1.42188
Q17.9688 -1.42188 11.7344 6.48438
Q5.51562 14.4062 5.51562 27.2969
Q5.51562 40.1875 11.7344 48.0938
Q17.9688 56 27.875 56
Q33.9375 56 38.25 53.625
Q42.5781 51.2656 45.4062 46.3906
M14.7969 27.2969
Q14.7969 17.3906 18.875 11.75
Q22.9531 6.10938 30.0781 6.10938
Q37.2031 6.10938 41.2969 11.75
Q45.4062 17.3906 45.4062 27.2969
Q45.4062 37.2031 41.2969 42.8438
Q37.2031 48.4844 30.0781 48.4844
Q22.9531 48.4844 18.875 42.8438
Q14.7969 37.2031 14.7969 27.2969" id="BitstreamVeraSans-Roman-64"/>
      <path d="
M41.1094 46.2969
Q39.5938 47.1719 37.8125 47.5781
Q36.0312 48 33.8906 48
Q26.2656 48 22.1875 43.0469
Q18.1094 38.0938 18.1094 28.8125
L18.1094 0
L9.07812 0
L9.07812 54.6875
L18.1094 54.6875
L18.1094 46.1875
Q20.9531 51.1719 25.4844 53.5781
Q30.0312 56 36.5312 56
Q37.4531 56 38.5781 55.875
Q39.7031 55.7656 41.0625 55.5156
z
" id="BitstreamVeraSans-Roman-72"/>
      <path d="
M44.2812 53.0781
L44.2812 44.5781
Q40.4844 46.5312 36.375 47.5
Q32.2812 48.4844 27.875 48.4844
Q21.1875 48.4844 17.8438 46.4375
Q14.5 44.3906 14.5 40.2812
Q14.5 37.1562 16.8906 35.375
Q19.2812 33.5938 26.5156 31.9844
L29.5938 31.2969
Q39.1562 29.25 43.1875 25.5156
Q47.2188 21.7812 47.2188 15.0938
Q47.2188 7.46875 41.1875 3.01562
Q35.1562 -1.42188 24.6094 -1.42188
Q20.2188 -1.42188 15.4531 -0.5625
Q10.6875 0.296875 5.42188 2
L5.42188 11.2812
Q10.4062 8.6875 15.2344 7.39062
Q20.0625 6.10938 24.8125 6.10938
Q31.1562 6.10938 34.5625 8.28125
Q37.9844 10.4531 37.9844 14.4062
Q37.9844 18.0625 35.5156 20.0156
Q33.0625 21.9688 24.7031 23.7812
L21.5781 24.5156
Q13.2344 26.2656 9.51562 29.9062
Q5.8125 33.5469 5.8125 39.8906
Q5.8125 47.6094 11.2812 51.7969
Q16.75 56 26.8125 56
Q31.7812 56 36.1719 55.2656
Q40.5781 54.5469 44.2812 53.0781" id="BitstreamVeraSans-Roman-73"/>
      <path d="
M48.7812 52.5938
L48.7812 44.1875
Q44.9688 46.2969 41.1406 47.3438
Q37.3125 48.3906 33.4062 48.3906
Q24.6562 48.3906 19.8125 42.8438
Q14.9844 37.3125 14.9844 27.2969
Q14.9844 17.2812 19.8125 11.7344
Q24.6562 6.20312 33.4062 6.20312
Q37.3125 6.20312 41.1406 7.25
Q44.9688 8.29688 48.7812 10.4062
L48.7812 2.09375
Q45.0156 0.34375 40.9844 -0.53125
Q36.9688 -1.42188 32.4219 -1.42188
Q20.0625 -1.42188 12.7812 6.34375
Q5.51562 14.1094 5.51562 27.2969
Q5.51562 40.6719 12.8594 48.3281
Q20.2188 56 33.0156 56
Q37.1562 56 41.1094 55.1406
Q45.0625 54.2969 48.7812 52.5938" id="BitstreamVeraSans-Roman-63"/>
     </defs>
     <g transform="translate(119.148125 134.112083333)scale(0.11 -0.11)">
      <use xlink:href="#BitstreamVeraSans-Roman-47"/>
      <use x="77.490234375" xlink:href="#BitstreamVeraSans-Roman-72"/>
      <use x="118.603515625" xlink:href="#BitstreamVeraSans-Roman-69"/>
      <use x="146.38671875" xlink:href="#BitstreamVeraSans-Roman-64"/>
      <use x="209.86328125" xlink:href="#BitstreamVeraSans-Roman-6e"/>
      <use x="273.2421875" xlink:href="#BitstreamVeraSans-Roman-65"/>
      <use x="334.765625" xlink:href="#BitstreamVeraSans-Roman-73"/>
      <use x="386.865234375" xlink:href="#BitstreamVeraSans-Roman-73"/>
      <use x="438.96484375" xlink:href="#BitstreamVeraSans-Roman-20"/>
      <use x="470.751953125" xlink:href="#BitstreamVeraSans-Roman-73"/>
      <use x="522.8515625" xlink:href="#BitstreamVeraSans-Roman-63"/>
      <use x="577.83203125" xlink:href="#BitstreamVeraSans-Roman-6f"/>
      <use x="639.013671875" xlink:href="#BitstreamVeraSans-Roman-72"/>
      <use x="677.876953125" xlink:href="#BitstreamVeraSans-Roman-65"/>
     </g>
    </g>
   </g>
   <g id="matplotlib.axis_2">
    <g id="ytick_1">
     <g id="line2d_8">
      <defs>
       <path d="
M0 0
L-6 0" id="m8f30a2eca3" style="stroke:#000000;stroke-linecap:butt;"/>
      </defs>
      <g>
       <use style="stroke:#000000;stroke-linecap:butt;" x="58.143125" xlink:href="#m8f30a2eca3" y="100.870486054"/>
      </g>
     </g>
     <g id="text_6">
      <!-- 0 -->
      <g transform="translate(42.60015625 104.874314179)scale(0.11 -0.11)">
       <use xlink:href="#BitstreamVeraSans-Roman-30"/>
      </g>
     </g>
    </g>
    <g id="ytick_2">
     <g id="line2d_9">
      <g>
       <use style="stroke:#000000;stroke-linecap:butt;" x="58.143125" xlink:href="#m8f30a2eca3" y="51.798857361"/>
      </g>
     </g>
     <g id="text_7">
      <!-- 2 -->
      <defs>
       <path d="
M19.1875 8.29688
L53.6094 8.29688
L53.6094 0
L7.32812 0
L7.32812 8.29688
Q12.9375 14.1094 22.625 23.8906
Q32.3281 33.6875 34.8125 36.5312
Q39.5469 41.8438 41.4219 45.5312
Q43.3125 49.2188 43.3125 52.7812
Q43.3125 58.5938 39.2344 62.25
Q35.1562 65.9219 28.6094 65.9219
Q23.9688 65.9219 18.8125 64.3125
Q13.6719 62.7031 7.8125 59.4219
L7.8125 69.3906
Q13.7656 71.7812 18.9375 73
Q24.125 74.2188 28.4219 74.2188
Q39.75 74.2188 46.4844 68.5469
Q53.2188 62.8906 53.2188 53.4219
Q53.2188 48.9219 51.5312 44.8906
Q49.8594 40.875 45.4062 35.4062
Q44.1875 33.9844 37.6406 27.2188
Q31.1094 20.4531 19.1875 8.29688" id="BitstreamVeraSans-Roman-32"/>
      </defs>
      <g transform="translate(43.0521875 55.880888611)scale(0.11 -0.11)">
       <use xlink:href="#BitstreamVeraSans-Roman-32"/>
      </g>
     </g>
    </g>
    <g id="ytick_3">
     <g id="line2d_10">
      <defs>
       <path d="
M0 0
L-4 0" id="m22a6fc3c10" style="stroke:#000000;stroke-linecap:butt;"/>
      </defs>
      <g>
       <use style="stroke:#000000;stroke-linecap:butt;" x="58.143125" xlink:href="#m22a6fc3c10" y="76.3346717074"/>
      </g>
     </g>
    </g>
   </g>
   <g id="patch_6">
    <path d="
M58.1431 102.433
L260.9 102.433" style="fill:none;stroke:#000000;"/>
   </g>
   <g id="patch_7">
    <path d="
M58.1431 102.433
L58.1431 5.5" style="fill:none;stroke:#000000;"/>
   </g>
   <g id="text_8">
    <!-- p(G) -->
    <defs>
     <path d="
M8.01562 75.875
L15.8281 75.875
Q23.1406 64.3594 26.7812 53.3125
Q30.4219 42.2812 30.4219 31.3906
Q30.4219 20.4531 26.7812 9.375
Q23.1406 -1.70312 15.8281 -13.1875
L8.01562 -13.1875
Q14.5 -2 17.7031 9.0625
Q20.9062 20.125 20.9062 31.3906
Q20.9062 42.6719 17.7031 53.6562
Q14.5 64.6562 8.01562 75.875" id="BitstreamVeraSans-Roman-29"/>
     <path d="
M31 75.875
Q24.4688 64.6562 21.2812 53.6562
Q18.1094 42.6719 18.1094 31.3906
Q18.1094 20.125 21.3125 9.0625
Q24.5156 -2 31 -13.1875
L23.1875 -13.1875
Q15.875 -1.70312 12.2344 9.375
Q8.59375 20.4531 8.59375 31.3906
Q8.59375 42.2812 12.2031 53.3125
Q15.8281 64.3594 23.1875 75.875
z
" id="BitstreamVeraSans-Roman-28"/>
     <path d="
M18.1094 8.20312
L18.1094 -20.7969
L9.07812 -20.7969
L9.07812 54.6875
L18.1094 54.6875
L18.1094 46.3906
Q20.9531 51.2656 25.2656 53.625
Q29.5938 56 35.5938 56
Q45.5625 56 51.7812 48.0938
Q58.0156 40.1875 58.0156 27.2969
Q58.0156 14.4062 51.7812 6.48438
Q45.5625 -1.42188 35.5938 -1.42188
Q29.5938 -1.42188 25.2656 0.953125
Q20.9531 3.32812 18.1094 8.20312
M48.6875 27.2969
Q48.6875 37.2031 44.6094 42.8438
Q40.5312 48.4844 33.4062 48.4844
Q26.2656 48.4844 22.1875 42.8438
Q18.1094 37.2031 18.1094 27.2969
Q18.1094 17.3906 22.1875 11.75
Q26.2656 6.10938 33.4062 6.10938
Q40.5312 6.10938 44.6094 11.75
Q48.6875 17.3906 48.6875 27.2969" id="BitstreamVeraSans-Roman-70"/>
    </defs>
    <g transform="translate(12.522828125 62.7520572917)rotate(-90.0)scale(0.11 -0.11)">
     <use xlink:href="#BitstreamVeraSans-Roman-70"/>
     <use x="63.4765625" xlink:href="#BitstreamVeraSans-Roman-28"/>
     <use x="102.490234375" xlink:href="#BitstreamVeraSans-Roman-47"/>
     <use x="179.98046875" xlink:href="#BitstreamVeraSans-Roman-29"/>
    </g>
   </g>
   <g id="legend_1">
    <g id="text_9">
     <!-- $\sigma$ (pA) -->
     <defs>
      <path d="
M51.7969 36.5938
L34.2031 36.5938
Q35.7031 34.4062 38.0938 32.3438
Q40.5 30.2969 42.25 29.0469
Q44 27.7969 45.3438 25.1875
Q46.7031 22.5938 46.7031 18.7969
Q46.7031 11.2031 40 5.09375
Q33.2969 -1 23.9062 -1
Q15.4062 -1 9.15625 5.79688
Q2.90625 12.5938 2.90625 21.5
Q2.90625 33 8.90625 39
Q14.9062 45 23.9062 45
L51.7969 45
z

M37.7031 17.0938
Q37.7031 23.2031 34.5938 29
Q31.5 34.7969 27.2969 36.5938
Q24.7969 36.5938 22.3906 36.0469
Q20 35.5 17.5 34.2031
Q15 32.9062 13.4531 30.1562
Q11.9062 27.4062 11.9062 23.4062
Q11.9062 14.9062 16.3438 8.34375
Q20.7969 1.79688 26.0938 1.79688
Q31.7031 1.79688 34.7031 6.34375
Q37.7031 10.9062 37.7031 17.0938" id="STIXGeneral-Regular-3c3"/>
      <path d="
M34.1875 63.1875
L20.7969 26.9062
L47.6094 26.9062
z

M28.6094 72.9062
L39.7969 72.9062
L67.5781 0
L57.3281 0
L50.6875 18.7031
L17.8281 18.7031
L11.1875 0
L0.78125 0
z
" id="BitstreamVeraSans-Roman-41"/>
     </defs>
     <g transform="translate(229.494514844 18.7763122917)scale(0.07634 -0.07634)">
      <use transform="translate(0.0 21.125)" xlink:href="#STIXGeneral-Regular-3c3"/>
      <use transform="translate(54.799987793 21.125)" xlink:href="#BitstreamVeraSans-Roman-20"/>
      <use transform="translate(86.587097168 21.125)" xlink:href="#BitstreamVeraSans-Roman-28"/>
      <use transform="translate(125.600769043 21.125)" xlink:href="#BitstreamVeraSans-Roman-70"/>
      <use transform="translate(189.077331543 21.125)" xlink:href="#BitstreamVeraSans-Roman-41"/>
      <use transform="translate(257.485534668 21.125)" xlink:href="#BitstreamVeraSans-Roman-29"/>
     </g>
    </g>
    <g id="patch_8">
     <path d="
M223.402 28.394
L238.67 28.394
L238.67 23.0502
L223.402 23.0502
z
" style="fill:none;stroke:#0000ff;"/>
    </g>
    <g id="text_10">
     <!-- 0 -->
     <g transform="translate(244.777425 28.3939594792)scale(0.07634 -0.07634)">
      <use xlink:href="#BitstreamVeraSans-Roman-30"/>
     </g>
    </g>
    <g id="patch_9">
     <path d="
M223.402 39.5992
L238.67 39.5992
L238.67 34.2554
L223.402 34.2554
z
" style="fill:none;stroke:#008000;"/>
    </g>
    <g id="text_11">
     <!-- 150 -->
     <g transform="translate(244.777425 39.5992401042)scale(0.07634 -0.07634)">
      <use xlink:href="#BitstreamVeraSans-Roman-31"/>
      <use x="63.623046875" xlink:href="#BitstreamVeraSans-Roman-35"/>
      <use x="127.24609375" xlink:href="#BitstreamVeraSans-Roman-30"/>
     </g>
    </g>
    <g id="patch_10">
     <path d="
M223.402 50.8045
L238.67 50.8045
L238.67 45.4607
L223.402 45.4607
z
" style="fill:none;stroke:#ff0000;"/>
    </g>
    <g id="text_12">
     <!-- 300 -->
     <defs>
      <path d="
M40.5781 39.3125
Q47.6562 37.7969 51.625 33
Q55.6094 28.2188 55.6094 21.1875
Q55.6094 10.4062 48.1875 4.48438
Q40.7656 -1.42188 27.0938 -1.42188
Q22.5156 -1.42188 17.6562 -0.515625
Q12.7969 0.390625 7.625 2.20312
L7.625 11.7188
Q11.7188 9.32812 16.5938 8.10938
Q21.4844 6.89062 26.8125 6.89062
Q36.0781 6.89062 40.9375 10.5469
Q45.7969 14.2031 45.7969 21.1875
Q45.7969 27.6406 41.2812 31.2656
Q36.7656 34.9062 28.7188 34.9062
L20.2188 34.9062
L20.2188 43.0156
L29.1094 43.0156
Q36.375 43.0156 40.2344 45.9219
Q44.0938 48.8281 44.0938 54.2969
Q44.0938 59.9062 40.1094 62.9062
Q36.1406 65.9219 28.7188 65.9219
Q24.6562 65.9219 20.0156 65.0312
Q15.375 64.1562 9.8125 62.3125
L9.8125 71.0938
Q15.4375 72.6562 20.3438 73.4375
Q25.25 74.2188 29.5938 74.2188
Q40.8281 74.2188 47.3594 69.1094
Q53.9062 64.0156 53.9062 55.3281
Q53.9062 49.2656 50.4375 45.0938
Q46.9688 40.9219 40.5781 39.3125" id="BitstreamVeraSans-Roman-33"/>
     </defs>
     <g transform="translate(244.777425 50.8045207292)scale(0.07634 -0.07634)">
      <use xlink:href="#BitstreamVeraSans-Roman-33"/>
      <use x="63.623046875" xlink:href="#BitstreamVeraSans-Roman-30"/>
      <use x="127.24609375" xlink:href="#BitstreamVeraSans-Roman-30"/>
     </g>
    </g>
   </g>
  </g>
  <g id="axes_2">
   <g id="patch_11">
    <path d="
M58.1431 240.233
L260.9 240.233
L260.9 167.533
L58.1431 167.533
z
" style="fill:none;opacity:0.0;"/>
   </g>
   <g id="line2d_11">
    <path clip-path="url(#p4f96be1df4)" d="
M62.0423 187.09
L68.3313 191.979
L74.6203 199.632
L80.9093 209.056
L87.1982 215.646
L93.4872 220.11
L99.7762 223.086
L106.065 224.857
L112.354 226.274
L118.643 227.054
L124.932 227.762
L131.221 228.188
L137.51 228.967
L143.799 229.321
L150.088 229.605
L156.377 230.101
L162.666 230.668
L168.955 230.809
L175.244 231.093
L181.533 231.447
L187.822 231.872
L194.111 231.872
L200.4 232.156
L206.689 232.652
L212.978 233.006
L219.267 233.431
L225.556 233.785
L231.845 234.919
L238.134 235.628
L244.423 235.769
L250.712 235.769
L257.001 235.769" style="fill:none;stroke:#0000ff;"/>
    <defs>
     <path d="
M0 2
C0.530406 2 1.03916 1.78927 1.41421 1.41421
C1.78927 1.03916 2 0.530406 2 0
C2 -0.530406 1.78927 -1.03916 1.41421 -1.41421
C1.03916 -1.78927 0.530406 -2 0 -2
C-0.530406 -2 -1.03916 -1.78927 -1.41421 -1.41421
C-1.78927 -1.03916 -2 -0.530406 -2 0
C-2 0.530406 -1.78927 1.03916 -1.41421 1.41421
C-1.03916 1.78927 -0.530406 2 0 2
z
" id="mbfdea2b989" style="stroke:#000000;stroke-linecap:butt;stroke-width:0.5;"/>
    </defs>
    <g clip-path="url(#p4f96be1df4)">
     <use style="fill:#0000ff;stroke:#000000;stroke-linecap:butt;stroke-width:0.5;" x="62.0422956731" xlink:href="#mbfdea2b989" y="187.09005848"/>
     <use style="fill:#0000ff;stroke:#000000;stroke-linecap:butt;stroke-width:0.5;" x="68.3312806297" xlink:href="#mbfdea2b989" y="191.979239766"/>
     <use style="fill:#0000ff;stroke:#000000;stroke-linecap:butt;stroke-width:0.5;" x="74.6202655862" xlink:href="#mbfdea2b989" y="199.631871345"/>
     <use style="fill:#0000ff;stroke:#000000;stroke-linecap:butt;stroke-width:0.5;" x="80.9092505428" xlink:href="#mbfdea2b989" y="209.055945419"/>
     <use style="fill:#0000ff;stroke:#000000;stroke-linecap:butt;stroke-width:0.5;" x="87.1982354994" xlink:href="#mbfdea2b989" y="215.645711501"/>
     <use style="fill:#0000ff;stroke:#000000;stroke-linecap:butt;stroke-width:0.5;" x="93.487220456" xlink:href="#mbfdea2b989" y="220.109746589"/>
     <use style="fill:#0000ff;stroke:#000000;stroke-linecap:butt;stroke-width:0.5;" x="99.7762054125" xlink:href="#mbfdea2b989" y="223.085769981"/>
     <use style="fill:#0000ff;stroke:#000000;stroke-linecap:butt;stroke-width:0.5;" x="106.065190369" xlink:href="#mbfdea2b989" y="224.857212476"/>
     <use style="fill:#0000ff;stroke:#000000;stroke-linecap:butt;stroke-width:0.5;" x="112.354175326" xlink:href="#mbfdea2b989" y="226.274366472"/>
     <use style="fill:#0000ff;stroke:#000000;stroke-linecap:butt;stroke-width:0.5;" x="118.643160282" xlink:href="#mbfdea2b989" y="227.05380117"/>
     <use style="fill:#0000ff;stroke:#000000;stroke-linecap:butt;stroke-width:0.5;" x="124.932145239" xlink:href="#mbfdea2b989" y="227.762378168"/>
     <use style="fill:#0000ff;stroke:#000000;stroke-linecap:butt;stroke-width:0.5;" x="131.221130195" xlink:href="#mbfdea2b989" y="228.187524366"/>
     <use style="fill:#0000ff;stroke:#000000;stroke-linecap:butt;stroke-width:0.5;" x="137.510115152" xlink:href="#mbfdea2b989" y="228.966959064"/>
     <use style="fill:#0000ff;stroke:#000000;stroke-linecap:butt;stroke-width:0.5;" x="143.799100109" xlink:href="#mbfdea2b989" y="229.321247563"/>
     <use style="fill:#0000ff;stroke:#000000;stroke-linecap:butt;stroke-width:0.5;" x="150.088085065" xlink:href="#mbfdea2b989" y="229.604678363"/>
     <use style="fill:#0000ff;stroke:#000000;stroke-linecap:butt;stroke-width:0.5;" x="156.377070022" xlink:href="#mbfdea2b989" y="230.100682261"/>
     <use style="fill:#0000ff;stroke:#000000;stroke-linecap:butt;stroke-width:0.5;" x="162.666054978" xlink:href="#mbfdea2b989" y="230.66754386"/>
     <use style="fill:#0000ff;stroke:#000000;stroke-linecap:butt;stroke-width:0.5;" x="168.955039935" xlink:href="#mbfdea2b989" y="230.809259259"/>
     <use style="fill:#0000ff;stroke:#000000;stroke-linecap:butt;stroke-width:0.5;" x="175.244024891" xlink:href="#mbfdea2b989" y="231.092690058"/>
     <use style="fill:#0000ff;stroke:#000000;stroke-linecap:butt;stroke-width:0.5;" x="181.533009848" xlink:href="#mbfdea2b989" y="231.446978558"/>
     <use style="fill:#0000ff;stroke:#000000;stroke-linecap:butt;stroke-width:0.5;" x="187.821994805" xlink:href="#mbfdea2b989" y="231.872124756"/>
     <use style="fill:#0000ff;stroke:#000000;stroke-linecap:butt;stroke-width:0.5;" x="194.110979761" xlink:href="#mbfdea2b989" y="231.872124756"/>
     <use style="fill:#0000ff;stroke:#000000;stroke-linecap:butt;stroke-width:0.5;" x="200.399964718" xlink:href="#mbfdea2b989" y="232.155555556"/>
     <use style="fill:#0000ff;stroke:#000000;stroke-linecap:butt;stroke-width:0.5;" x="206.688949674" xlink:href="#mbfdea2b989" y="232.651559454"/>
     <use style="fill:#0000ff;stroke:#000000;stroke-linecap:butt;stroke-width:0.5;" x="212.977934631" xlink:href="#mbfdea2b989" y="233.005847953"/>
     <use style="fill:#0000ff;stroke:#000000;stroke-linecap:butt;stroke-width:0.5;" x="219.266919587" xlink:href="#mbfdea2b989" y="233.430994152"/>
     <use style="fill:#0000ff;stroke:#000000;stroke-linecap:butt;stroke-width:0.5;" x="225.555904544" xlink:href="#mbfdea2b989" y="233.785282651"/>
     <use style="fill:#0000ff;stroke:#000000;stroke-linecap:butt;stroke-width:0.5;" x="231.844889501" xlink:href="#mbfdea2b989" y="234.919005848"/>
     <use style="fill:#0000ff;stroke:#000000;stroke-linecap:butt;stroke-width:0.5;" x="238.133874457" xlink:href="#mbfdea2b989" y="235.627582846"/>
     <use style="fill:#0000ff;stroke:#000000;stroke-linecap:butt;stroke-width:0.5;" x="244.422859414" xlink:href="#mbfdea2b989" y="235.769298246"/>
     <use style="fill:#0000ff;stroke:#000000;stroke-linecap:butt;stroke-width:0.5;" x="250.71184437" xlink:href="#mbfdea2b989" y="235.769298246"/>
     <use style="fill:#0000ff;stroke:#000000;stroke-linecap:butt;stroke-width:0.5;" x="257.000829327" xlink:href="#mbfdea2b989" y="235.769298246"/>
    </g>
   </g>
   <g id="line2d_12">
    <path clip-path="url(#p4f96be1df4)" d="
M62.0423 174.832
L68.3313 179.65
L74.6203 182.909
L80.9093 183.547
L87.1982 183.831
L93.4872 184.043
L99.7762 184.61
L106.065 184.964
L112.354 185.46
L118.643 186.027
L124.932 186.523
L131.221 187.444
L137.51 188.224
L143.799 189.287
L150.088 190.916
L156.377 192.546
L162.666 193.892
L168.955 195.947
L175.244 198.144
L181.533 200.199
L187.822 201.899
L194.111 204.734
L200.4 207.922
L206.689 210.757
L212.978 214.016
L219.267 217.488
L225.556 221.669
L231.845 226.841
L238.134 232.014
L244.423 234.636
L250.712 235.628
L257.001 235.769" style="fill:none;stroke:#008000;"/>
    <defs>
     <path d="
M0 2
C0.530406 2 1.03916 1.78927 1.41421 1.41421
C1.78927 1.03916 2 0.530406 2 0
C2 -0.530406 1.78927 -1.03916 1.41421 -1.41421
C1.03916 -1.78927 0.530406 -2 0 -2
C-0.530406 -2 -1.03916 -1.78927 -1.41421 -1.41421
C-1.78927 -1.03916 -2 -0.530406 -2 0
C-2 0.530406 -1.78927 1.03916 -1.41421 1.41421
C-1.03916 1.78927 -0.530406 2 0 2
z
" id="mcf010e552c" style="stroke:#000000;stroke-linecap:butt;stroke-width:0.5;"/>
    </defs>
    <g clip-path="url(#p4f96be1df4)">
     <use style="fill:#008000;stroke:#000000;stroke-linecap:butt;stroke-width:0.5;" x="62.0422956731" xlink:href="#mcf010e552c" y="174.831676413"/>
     <use style="fill:#008000;stroke:#000000;stroke-linecap:butt;stroke-width:0.5;" x="68.3312806297" xlink:href="#mcf010e552c" y="179.65"/>
     <use style="fill:#008000;stroke:#000000;stroke-linecap:butt;stroke-width:0.5;" x="74.6202655862" xlink:href="#mcf010e552c" y="182.909454191"/>
     <use style="fill:#008000;stroke:#000000;stroke-linecap:butt;stroke-width:0.5;" x="80.9092505428" xlink:href="#mcf010e552c" y="183.547173489"/>
     <use style="fill:#008000;stroke:#000000;stroke-linecap:butt;stroke-width:0.5;" x="87.1982354994" xlink:href="#mcf010e552c" y="183.830604288"/>
     <use style="fill:#008000;stroke:#000000;stroke-linecap:butt;stroke-width:0.5;" x="93.487220456" xlink:href="#mcf010e552c" y="184.043177388"/>
     <use style="fill:#008000;stroke:#000000;stroke-linecap:butt;stroke-width:0.5;" x="99.7762054125" xlink:href="#mcf010e552c" y="184.610038986"/>
     <use style="fill:#008000;stroke:#000000;stroke-linecap:butt;stroke-width:0.5;" x="106.065190369" xlink:href="#mcf010e552c" y="184.964327485"/>
     <use style="fill:#008000;stroke:#000000;stroke-linecap:butt;stroke-width:0.5;" x="112.354175326" xlink:href="#mcf010e552c" y="185.460331384"/>
     <use style="fill:#008000;stroke:#000000;stroke-linecap:butt;stroke-width:0.5;" x="118.643160282" xlink:href="#mcf010e552c" y="186.027192982"/>
     <use style="fill:#008000;stroke:#000000;stroke-linecap:butt;stroke-width:0.5;" x="124.932145239" xlink:href="#mcf010e552c" y="186.523196881"/>
     <use style="fill:#008000;stroke:#000000;stroke-linecap:butt;stroke-width:0.5;" x="131.221130195" xlink:href="#mcf010e552c" y="187.444346979"/>
     <use style="fill:#008000;stroke:#000000;stroke-linecap:butt;stroke-width:0.5;" x="137.510115152" xlink:href="#mcf010e552c" y="188.223781676"/>
     <use style="fill:#008000;stroke:#000000;stroke-linecap:butt;stroke-width:0.5;" x="143.799100109" xlink:href="#mcf010e552c" y="189.286647173"/>
     <use style="fill:#008000;stroke:#000000;stroke-linecap:butt;stroke-width:0.5;" x="150.088085065" xlink:href="#mcf010e552c" y="190.916374269"/>
     <use style="fill:#008000;stroke:#000000;stroke-linecap:butt;stroke-width:0.5;" x="156.377070022" xlink:href="#mcf010e552c" y="192.546101365"/>
     <use style="fill:#008000;stroke:#000000;stroke-linecap:butt;stroke-width:0.5;" x="162.666054978" xlink:href="#mcf010e552c" y="193.892397661"/>
     <use style="fill:#008000;stroke:#000000;stroke-linecap:butt;stroke-width:0.5;" x="168.955039935" xlink:href="#mcf010e552c" y="195.947270955"/>
     <use style="fill:#008000;stroke:#000000;stroke-linecap:butt;stroke-width:0.5;" x="175.244024891" xlink:href="#mcf010e552c" y="198.143859649"/>
     <use style="fill:#008000;stroke:#000000;stroke-linecap:butt;stroke-width:0.5;" x="181.533009848" xlink:href="#mcf010e552c" y="200.198732943"/>
     <use style="fill:#008000;stroke:#000000;stroke-linecap:butt;stroke-width:0.5;" x="187.821994805" xlink:href="#mcf010e552c" y="201.899317739"/>
     <use style="fill:#008000;stroke:#000000;stroke-linecap:butt;stroke-width:0.5;" x="194.110979761" xlink:href="#mcf010e552c" y="204.733625731"/>
     <use style="fill:#008000;stroke:#000000;stroke-linecap:butt;stroke-width:0.5;" x="200.399964718" xlink:href="#mcf010e552c" y="207.922222222"/>
     <use style="fill:#008000;stroke:#000000;stroke-linecap:butt;stroke-width:0.5;" x="206.688949674" xlink:href="#mcf010e552c" y="210.756530214"/>
     <use style="fill:#008000;stroke:#000000;stroke-linecap:butt;stroke-width:0.5;" x="212.977934631" xlink:href="#mcf010e552c" y="214.015984405"/>
     <use style="fill:#008000;stroke:#000000;stroke-linecap:butt;stroke-width:0.5;" x="219.266919587" xlink:href="#mcf010e552c" y="217.488011696"/>
     <use style="fill:#008000;stroke:#000000;stroke-linecap:butt;stroke-width:0.5;" x="225.555904544" xlink:href="#mcf010e552c" y="221.668615984"/>
     <use style="fill:#008000;stroke:#000000;stroke-linecap:butt;stroke-width:0.5;" x="231.844889501" xlink:href="#mcf010e552c" y="226.84122807"/>
     <use style="fill:#008000;stroke:#000000;stroke-linecap:butt;stroke-width:0.5;" x="238.133874457" xlink:href="#mcf010e552c" y="232.013840156"/>
     <use style="fill:#008000;stroke:#000000;stroke-linecap:butt;stroke-width:0.5;" x="244.422859414" xlink:href="#mcf010e552c" y="234.635575049"/>
     <use style="fill:#008000;stroke:#000000;stroke-linecap:butt;stroke-width:0.5;" x="250.71184437" xlink:href="#mcf010e552c" y="235.627582846"/>
     <use style="fill:#008000;stroke:#000000;stroke-linecap:butt;stroke-width:0.5;" x="257.000829327" xlink:href="#mcf010e552c" y="235.769298246"/>
    </g>
   </g>
   <g id="line2d_13">
    <path clip-path="url(#p4f96be1df4)" d="
M62.0423 175.895
L68.3313 180.146
L74.6203 184.185
L80.9093 185.885
L87.1982 188.011
L93.4872 190.066
L99.7762 194.318
L106.065 200.27
L112.354 207.214
L118.643 213.733
L124.932 218.693
L131.221 223.157
L137.51 226.133
L143.799 228.188
L150.088 229.534
L156.377 230.597
L162.666 231.518
L168.955 232.014
L175.244 232.652
L181.533 233.289
L187.822 233.856
L194.111 234.281
L200.4 234.565
L206.689 234.99
L212.978 235.132
L219.267 235.273
L225.556 235.415
L231.845 235.628
L238.134 235.769
L244.423 235.769
L250.712 235.769
L257.001 235.769" style="fill:none;stroke:#ff0000;"/>
    <defs>
     <path d="
M0 2
C0.530406 2 1.03916 1.78927 1.41421 1.41421
C1.78927 1.03916 2 0.530406 2 0
C2 -0.530406 1.78927 -1.03916 1.41421 -1.41421
C1.03916 -1.78927 0.530406 -2 0 -2
C-0.530406 -2 -1.03916 -1.78927 -1.41421 -1.41421
C-1.78927 -1.03916 -2 -0.530406 -2 0
C-2 0.530406 -1.78927 1.03916 -1.41421 1.41421
C-1.03916 1.78927 -0.530406 2 0 2
z
" id="mcf91ae3040" style="stroke:#000000;stroke-linecap:butt;stroke-width:0.5;"/>
    </defs>
    <g clip-path="url(#p4f96be1df4)">
     <use style="fill:#ff0000;stroke:#000000;stroke-linecap:butt;stroke-width:0.5;" x="62.0422956731" xlink:href="#mcf91ae3040" y="175.89454191"/>
     <use style="fill:#ff0000;stroke:#000000;stroke-linecap:butt;stroke-width:0.5;" x="68.3312806297" xlink:href="#mcf91ae3040" y="180.146003899"/>
     <use style="fill:#ff0000;stroke:#000000;stroke-linecap:butt;stroke-width:0.5;" x="74.6202655862" xlink:href="#mcf91ae3040" y="184.184892788"/>
     <use style="fill:#ff0000;stroke:#000000;stroke-linecap:butt;stroke-width:0.5;" x="80.9092505428" xlink:href="#mcf91ae3040" y="185.885477583"/>
     <use style="fill:#ff0000;stroke:#000000;stroke-linecap:butt;stroke-width:0.5;" x="87.1982354994" xlink:href="#mcf91ae3040" y="188.011208577"/>
     <use style="fill:#ff0000;stroke:#000000;stroke-linecap:butt;stroke-width:0.5;" x="93.487220456" xlink:href="#mcf91ae3040" y="190.066081871"/>
     <use style="fill:#ff0000;stroke:#000000;stroke-linecap:butt;stroke-width:0.5;" x="99.7762054125" xlink:href="#mcf91ae3040" y="194.31754386"/>
     <use style="fill:#ff0000;stroke:#000000;stroke-linecap:butt;stroke-width:0.5;" x="106.065190369" xlink:href="#mcf91ae3040" y="200.269590643"/>
     <use style="fill:#ff0000;stroke:#000000;stroke-linecap:butt;stroke-width:0.5;" x="112.354175326" xlink:href="#mcf91ae3040" y="207.213645224"/>
     <use style="fill:#ff0000;stroke:#000000;stroke-linecap:butt;stroke-width:0.5;" x="118.643160282" xlink:href="#mcf91ae3040" y="213.732553606"/>
     <use style="fill:#ff0000;stroke:#000000;stroke-linecap:butt;stroke-width:0.5;" x="124.932145239" xlink:href="#mcf91ae3040" y="218.692592593"/>
     <use style="fill:#ff0000;stroke:#000000;stroke-linecap:butt;stroke-width:0.5;" x="131.221130195" xlink:href="#mcf91ae3040" y="223.15662768"/>
     <use style="fill:#ff0000;stroke:#000000;stroke-linecap:butt;stroke-width:0.5;" x="137.510115152" xlink:href="#mcf91ae3040" y="226.132651072"/>
     <use style="fill:#ff0000;stroke:#000000;stroke-linecap:butt;stroke-width:0.5;" x="143.799100109" xlink:href="#mcf91ae3040" y="228.187524366"/>
     <use style="fill:#ff0000;stroke:#000000;stroke-linecap:butt;stroke-width:0.5;" x="150.088085065" xlink:href="#mcf91ae3040" y="229.533820663"/>
     <use style="fill:#ff0000;stroke:#000000;stroke-linecap:butt;stroke-width:0.5;" x="156.377070022" xlink:href="#mcf91ae3040" y="230.59668616"/>
     <use style="fill:#ff0000;stroke:#000000;stroke-linecap:butt;stroke-width:0.5;" x="162.666054978" xlink:href="#mcf91ae3040" y="231.517836257"/>
     <use style="fill:#ff0000;stroke:#000000;stroke-linecap:butt;stroke-width:0.5;" x="168.955039935" xlink:href="#mcf91ae3040" y="232.013840156"/>
     <use style="fill:#ff0000;stroke:#000000;stroke-linecap:butt;stroke-width:0.5;" x="175.244024891" xlink:href="#mcf91ae3040" y="232.651559454"/>
     <use style="fill:#ff0000;stroke:#000000;stroke-linecap:butt;stroke-width:0.5;" x="181.533009848" xlink:href="#mcf91ae3040" y="233.289278752"/>
     <use style="fill:#ff0000;stroke:#000000;stroke-linecap:butt;stroke-width:0.5;" x="187.821994805" xlink:href="#mcf91ae3040" y="233.856140351"/>
     <use style="fill:#ff0000;stroke:#000000;stroke-linecap:butt;stroke-width:0.5;" x="194.110979761" xlink:href="#mcf91ae3040" y="234.28128655"/>
     <use style="fill:#ff0000;stroke:#000000;stroke-linecap:butt;stroke-width:0.5;" x="200.399964718" xlink:href="#mcf91ae3040" y="234.564717349"/>
     <use style="fill:#ff0000;stroke:#000000;stroke-linecap:butt;stroke-width:0.5;" x="206.688949674" xlink:href="#mcf91ae3040" y="234.989863548"/>
     <use style="fill:#ff0000;stroke:#000000;stroke-linecap:butt;stroke-width:0.5;" x="212.977934631" xlink:href="#mcf91ae3040" y="235.131578947"/>
     <use style="fill:#ff0000;stroke:#000000;stroke-linecap:butt;stroke-width:0.5;" x="219.266919587" xlink:href="#mcf91ae3040" y="235.273294347"/>
     <use style="fill:#ff0000;stroke:#000000;stroke-linecap:butt;stroke-width:0.5;" x="225.555904544" xlink:href="#mcf91ae3040" y="235.415009747"/>
     <use style="fill:#ff0000;stroke:#000000;stroke-linecap:butt;stroke-width:0.5;" x="231.844889501" xlink:href="#mcf91ae3040" y="235.627582846"/>
     <use style="fill:#ff0000;stroke:#000000;stroke-linecap:butt;stroke-width:0.5;" x="238.133874457" xlink:href="#mcf91ae3040" y="235.769298246"/>
     <use style="fill:#ff0000;stroke:#000000;stroke-linecap:butt;stroke-width:0.5;" x="244.422859414" xlink:href="#mcf91ae3040" y="235.769298246"/>
     <use style="fill:#ff0000;stroke:#000000;stroke-linecap:butt;stroke-width:0.5;" x="250.71184437" xlink:href="#mcf91ae3040" y="235.769298246"/>
     <use style="fill:#ff0000;stroke:#000000;stroke-linecap:butt;stroke-width:0.5;" x="257.000829327" xlink:href="#mcf91ae3040" y="235.769298246"/>
    </g>
   </g>
   <g id="line2d_14"/>
   <g id="matplotlib.axis_3">
    <g id="xtick_8">
     <g id="line2d_15">
      <g>
       <use style="stroke:#000000;stroke-linecap:butt;" x="74.6202655862" xlink:href="#m647e85b279" y="240.233333333"/>
      </g>
     </g>
     <g id="text_13">
      <!-- −0.3 -->
      <g transform="translate(62.2882343362 258.397395833)scale(0.11 -0.11)">
       <use xlink:href="#BitstreamVeraSans-Roman-2212"/>
       <use x="83.7890625" xlink:href="#BitstreamVeraSans-Roman-30"/>
       <use x="147.412109375" xlink:href="#BitstreamVeraSans-Roman-2e"/>
       <use x="179.19921875" xlink:href="#BitstreamVeraSans-Roman-33"/>
      </g>
     </g>
    </g>
    <g id="xtick_9">
     <g id="line2d_16">
      <g>
       <use style="stroke:#000000;stroke-linecap:butt;" x="112.354175326" xlink:href="#m647e85b279" y="240.233333333"/>
      </g>
     </g>
     <g id="text_14">
      <!-- 0.0 -->
      <g transform="translate(104.335347201 258.397395833)scale(0.11 -0.11)">
       <use xlink:href="#BitstreamVeraSans-Roman-30"/>
       <use x="63.623046875" xlink:href="#BitstreamVeraSans-Roman-2e"/>
       <use x="95.41015625" xlink:href="#BitstreamVeraSans-Roman-30"/>
      </g>
     </g>
    </g>
    <g id="xtick_10">
     <g id="line2d_17">
      <g>
       <use style="stroke:#000000;stroke-linecap:butt;" x="150.088085065" xlink:href="#m647e85b279" y="240.233333333"/>
      </g>
     </g>
     <g id="text_15">
      <!-- 0.3 -->
      <g transform="translate(142.14488194 258.397395833)scale(0.11 -0.11)">
       <use xlink:href="#BitstreamVeraSans-Roman-30"/>
       <use x="63.623046875" xlink:href="#BitstreamVeraSans-Roman-2e"/>
       <use x="95.41015625" xlink:href="#BitstreamVeraSans-Roman-33"/>
      </g>
     </g>
    </g>
    <g id="xtick_11">
     <g id="line2d_18">
      <g>
       <use style="stroke:#000000;stroke-linecap:butt;" x="187.821994805" xlink:href="#m647e85b279" y="240.233333333"/>
      </g>
     </g>
     <g id="text_16">
      <!-- 0.6 -->
      <defs>
       <path d="
M33.0156 40.375
Q26.375 40.375 22.4844 35.8281
Q18.6094 31.2969 18.6094 23.3906
Q18.6094 15.5312 22.4844 10.9531
Q26.375 6.39062 33.0156 6.39062
Q39.6562 6.39062 43.5312 10.9531
Q47.4062 15.5312 47.4062 23.3906
Q47.4062 31.2969 43.5312 35.8281
Q39.6562 40.375 33.0156 40.375
M52.5938 71.2969
L52.5938 62.3125
Q48.875 64.0625 45.0938 64.9844
Q41.3125 65.9219 37.5938 65.9219
Q27.8281 65.9219 22.6719 59.3281
Q17.5312 52.7344 16.7969 39.4062
Q19.6719 43.6562 24.0156 45.9219
Q28.375 48.1875 33.5938 48.1875
Q44.5781 48.1875 50.9531 41.5156
Q57.3281 34.8594 57.3281 23.3906
Q57.3281 12.1562 50.6875 5.35938
Q44.0469 -1.42188 33.0156 -1.42188
Q20.3594 -1.42188 13.6719 8.26562
Q6.98438 17.9688 6.98438 36.375
Q6.98438 53.6562 15.1875 63.9375
Q23.3906 74.2188 37.2031 74.2188
Q40.9219 74.2188 44.7031 73.4844
Q48.4844 72.75 52.5938 71.2969" id="BitstreamVeraSans-Roman-36"/>
      </defs>
      <g transform="translate(179.78426043 258.397395833)scale(0.11 -0.11)">
       <use xlink:href="#BitstreamVeraSans-Roman-30"/>
       <use x="63.623046875" xlink:href="#BitstreamVeraSans-Roman-2e"/>
       <use x="95.41015625" xlink:href="#BitstreamVeraSans-Roman-36"/>
      </g>
     </g>
    </g>
    <g id="xtick_12">
     <g id="line2d_19">
      <g>
       <use style="stroke:#000000;stroke-linecap:butt;" x="225.555904544" xlink:href="#m647e85b279" y="240.233333333"/>
      </g>
     </g>
     <g id="text_17">
      <!-- 0.9 -->
      <defs>
       <path d="
M10.9844 1.51562
L10.9844 10.5
Q14.7031 8.73438 18.5 7.8125
Q22.3125 6.89062 25.9844 6.89062
Q35.75 6.89062 40.8906 13.4531
Q46.0469 20.0156 46.7812 33.4062
Q43.9531 29.2031 39.5938 26.9531
Q35.25 24.7031 29.9844 24.7031
Q19.0469 24.7031 12.6719 31.3125
Q6.29688 37.9375 6.29688 49.4219
Q6.29688 60.6406 12.9375 67.4219
Q19.5781 74.2188 30.6094 74.2188
Q43.2656 74.2188 49.9219 64.5156
Q56.5938 54.8281 56.5938 36.375
Q56.5938 19.1406 48.4062 8.85938
Q40.2344 -1.42188 26.4219 -1.42188
Q22.7031 -1.42188 18.8906 -0.6875
Q15.0938 0.046875 10.9844 1.51562
M30.6094 32.4219
Q37.25 32.4219 41.125 36.9531
Q45.0156 41.5 45.0156 49.4219
Q45.0156 57.2812 41.125 61.8438
Q37.25 66.4062 30.6094 66.4062
Q23.9688 66.4062 20.0938 61.8438
Q16.2188 57.2812 16.2188 49.4219
Q16.2188 41.5 20.0938 36.9531
Q23.9688 32.4219 30.6094 32.4219" id="BitstreamVeraSans-Roman-39"/>
      </defs>
      <g transform="translate(217.558560794 258.397395833)scale(0.11 -0.11)">
       <use xlink:href="#BitstreamVeraSans-Roman-30"/>
       <use x="63.623046875" xlink:href="#BitstreamVeraSans-Roman-2e"/>
       <use x="95.41015625" xlink:href="#BitstreamVeraSans-Roman-39"/>
      </g>
     </g>
    </g>
    <g id="xtick_13">
     <g id="line2d_20">
      <g>
       <use style="stroke:#000000;stroke-linecap:butt;" x="62.0422956731" xlink:href="#m61903a1917" y="240.233333333"/>
      </g>
     </g>
    </g>
    <g id="xtick_14">
     <g id="line2d_21">
      <g>
       <use style="stroke:#000000;stroke-linecap:butt;" x="87.1982354994" xlink:href="#m61903a1917" y="240.233333333"/>
      </g>
     </g>
    </g>
    <g id="xtick_15">
     <g id="line2d_22">
      <g>
       <use style="stroke:#000000;stroke-linecap:butt;" x="99.7762054125" xlink:href="#m61903a1917" y="240.233333333"/>
      </g>
     </g>
    </g>
    <g id="xtick_16">
     <g id="line2d_23">
      <g>
       <use style="stroke:#000000;stroke-linecap:butt;" x="124.932145239" xlink:href="#m61903a1917" y="240.233333333"/>
      </g>
     </g>
    </g>
    <g id="xtick_17">
     <g id="line2d_24">
      <g>
       <use style="stroke:#000000;stroke-linecap:butt;" x="137.510115152" xlink:href="#m61903a1917" y="240.233333333"/>
      </g>
     </g>
    </g>
    <g id="xtick_18">
     <g id="line2d_25">
      <g>
       <use style="stroke:#000000;stroke-linecap:butt;" x="162.666054978" xlink:href="#m61903a1917" y="240.233333333"/>
      </g>
     </g>
    </g>
    <g id="xtick_19">
     <g id="line2d_26">
      <g>
       <use style="stroke:#000000;stroke-linecap:butt;" x="175.244024891" xlink:href="#m61903a1917" y="240.233333333"/>
      </g>
     </g>
    </g>
    <g id="xtick_20">
     <g id="line2d_27">
      <g>
       <use style="stroke:#000000;stroke-linecap:butt;" x="187.821994805" xlink:href="#m61903a1917" y="240.233333333"/>
      </g>
     </g>
    </g>
    <g id="xtick_21">
     <g id="line2d_28">
      <g>
       <use style="stroke:#000000;stroke-linecap:butt;" x="200.399964718" xlink:href="#m61903a1917" y="240.233333333"/>
      </g>
     </g>
    </g>
    <g id="xtick_22">
     <g id="line2d_29">
      <g>
       <use style="stroke:#000000;stroke-linecap:butt;" x="212.977934631" xlink:href="#m61903a1917" y="240.233333333"/>
      </g>
     </g>
    </g>
    <g id="xtick_23">
     <g id="line2d_30">
      <g>
       <use style="stroke:#000000;stroke-linecap:butt;" x="225.555904544" xlink:href="#m61903a1917" y="240.233333333"/>
      </g>
     </g>
    </g>
    <g id="xtick_24">
     <g id="line2d_31">
      <g>
       <use style="stroke:#000000;stroke-linecap:butt;" x="238.133874457" xlink:href="#m61903a1917" y="240.233333333"/>
      </g>
     </g>
    </g>
    <g id="xtick_25">
     <g id="line2d_32">
      <g>
       <use style="stroke:#000000;stroke-linecap:butt;" x="250.71184437" xlink:href="#m61903a1917" y="240.233333333"/>
      </g>
     </g>
    </g>
    <g id="text_18">
     <!-- Gridness score threshold -->
     <defs>
      <path d="
M18.3125 70.2188
L18.3125 54.6875
L36.8125 54.6875
L36.8125 47.7031
L18.3125 47.7031
L18.3125 18.0156
Q18.3125 11.3281 20.1406 9.42188
Q21.9688 7.51562 27.5938 7.51562
L36.8125 7.51562
L36.8125 0
L27.5938 0
Q17.1875 0 13.2344 3.875
Q9.28125 7.76562 9.28125 18.0156
L9.28125 47.7031
L2.6875 47.7031
L2.6875 54.6875
L9.28125 54.6875
L9.28125 70.2188
z
" id="BitstreamVeraSans-Roman-74"/>
      <path d="
M54.8906 33.0156
L54.8906 0
L45.9062 0
L45.9062 32.7188
Q45.9062 40.4844 42.875 44.3281
Q39.8438 48.1875 33.7969 48.1875
Q26.5156 48.1875 22.3125 43.5469
Q18.1094 38.9219 18.1094 30.9062
L18.1094 0
L9.07812 0
L9.07812 75.9844
L18.1094 75.9844
L18.1094 46.1875
Q21.3438 51.125 25.7031 53.5625
Q30.0781 56 35.7969 56
Q45.2188 56 50.0469 50.1719
Q54.8906 44.3438 54.8906 33.0156" id="BitstreamVeraSans-Roman-68"/>
      <path d="
M9.42188 75.9844
L18.4062 75.9844
L18.4062 0
L9.42188 0
z
" id="BitstreamVeraSans-Roman-6c"/>
     </defs>
     <g transform="translate(91.70828125 271.912083333)scale(0.11 -0.11)">
      <use xlink:href="#BitstreamVeraSans-Roman-47"/>
      <use x="77.490234375" xlink:href="#BitstreamVeraSans-Roman-72"/>
      <use x="118.603515625" xlink:href="#BitstreamVeraSans-Roman-69"/>
      <use x="146.38671875" xlink:href="#BitstreamVeraSans-Roman-64"/>
      <use x="209.86328125" xlink:href="#BitstreamVeraSans-Roman-6e"/>
      <use x="273.2421875" xlink:href="#BitstreamVeraSans-Roman-65"/>
      <use x="334.765625" xlink:href="#BitstreamVeraSans-Roman-73"/>
      <use x="386.865234375" xlink:href="#BitstreamVeraSans-Roman-73"/>
      <use x="438.96484375" xlink:href="#BitstreamVeraSans-Roman-20"/>
      <use x="470.751953125" xlink:href="#BitstreamVeraSans-Roman-73"/>
      <use x="522.8515625" xlink:href="#BitstreamVeraSans-Roman-63"/>
      <use x="577.83203125" xlink:href="#BitstreamVeraSans-Roman-6f"/>
      <use x="639.013671875" xlink:href="#BitstreamVeraSans-Roman-72"/>
      <use x="677.876953125" xlink:href="#BitstreamVeraSans-Roman-65"/>
      <use x="739.400390625" xlink:href="#BitstreamVeraSans-Roman-20"/>
      <use x="771.1875" xlink:href="#BitstreamVeraSans-Roman-74"/>
      <use x="810.396484375" xlink:href="#BitstreamVeraSans-Roman-68"/>
      <use x="873.775390625" xlink:href="#BitstreamVeraSans-Roman-72"/>
      <use x="912.638671875" xlink:href="#BitstreamVeraSans-Roman-65"/>
      <use x="974.162109375" xlink:href="#BitstreamVeraSans-Roman-73"/>
      <use x="1026.26171875" xlink:href="#BitstreamVeraSans-Roman-68"/>
      <use x="1089.640625" xlink:href="#BitstreamVeraSans-Roman-6f"/>
      <use x="1150.82226562" xlink:href="#BitstreamVeraSans-Roman-6c"/>
      <use x="1178.60546875" xlink:href="#BitstreamVeraSans-Roman-64"/>
     </g>
    </g>
   </g>
   <g id="matplotlib.axis_4">
    <g id="ytick_4">
     <g id="line2d_33">
      <g>
       <use style="stroke:#000000;stroke-linecap:butt;" x="58.143125" xlink:href="#m8f30a2eca3" y="235.769298246"/>
      </g>
     </g>
     <g id="text_19">
      <!-- 0.0 -->
      <g transform="translate(32.10546875 239.773126371)scale(0.11 -0.11)">
       <use xlink:href="#BitstreamVeraSans-Roman-30"/>
       <use x="63.623046875" xlink:href="#BitstreamVeraSans-Roman-2e"/>
       <use x="95.41015625" xlink:href="#BitstreamVeraSans-Roman-30"/>
      </g>
     </g>
    </g>
    <g id="ytick_5">
     <g id="line2d_34">
      <g>
       <use style="stroke:#000000;stroke-linecap:butt;" x="58.143125" xlink:href="#m8f30a2eca3" y="203.883333333"/>
      </g>
     </g>
     <g id="text_20">
      <!-- 0.5 -->
      <g transform="translate(32.33578125 207.887161458)scale(0.11 -0.11)">
       <use xlink:href="#BitstreamVeraSans-Roman-30"/>
       <use x="63.623046875" xlink:href="#BitstreamVeraSans-Roman-2e"/>
       <use x="95.41015625" xlink:href="#BitstreamVeraSans-Roman-35"/>
      </g>
     </g>
    </g>
    <g id="ytick_6">
     <g id="line2d_35">
      <g>
       <use style="stroke:#000000;stroke-linecap:butt;" x="58.143125" xlink:href="#m8f30a2eca3" y="171.997368421"/>
      </g>
     </g>
     <g id="text_21">
      <!-- 1.0 -->
      <g transform="translate(32.5884375 176.001196546)scale(0.11 -0.11)">
       <use xlink:href="#BitstreamVeraSans-Roman-31"/>
       <use x="63.623046875" xlink:href="#BitstreamVeraSans-Roman-2e"/>
       <use x="95.41015625" xlink:href="#BitstreamVeraSans-Roman-30"/>
      </g>
     </g>
    </g>
    <g id="ytick_7">
     <g id="line2d_36">
      <g>
       <use style="stroke:#000000;stroke-linecap:butt;" x="58.143125" xlink:href="#m22a6fc3c10" y="219.826315789"/>
      </g>
     </g>
    </g>
    <g id="ytick_8">
     <g id="line2d_37">
      <g>
       <use style="stroke:#000000;stroke-linecap:butt;" x="58.143125" xlink:href="#m22a6fc3c10" y="187.940350877"/>
      </g>
     </g>
    </g>
   </g>
   <g id="patch_12">
    <path d="
M58.1431 240.233
L260.9 240.233" style="fill:none;stroke:#000000;"/>
   </g>
   <g id="patch_13">
    <path d="
M58.1431 240.233
L58.1431 167.533" style="fill:none;stroke:#000000;"/>
   </g>
   <g id="text_22">
    <!-- Count -->
    <defs>
     <path d="
M8.5 21.5781
L8.5 54.6875
L17.4844 54.6875
L17.4844 21.9219
Q17.4844 14.1562 20.5 10.2656
Q23.5312 6.39062 29.5938 6.39062
Q36.8594 6.39062 41.0781 11.0312
Q45.3125 15.6719 45.3125 23.6875
L45.3125 54.6875
L54.2969 54.6875
L54.2969 0
L45.3125 0
L45.3125 8.40625
Q42.0469 3.42188 37.7188 1
Q33.4062 -1.42188 27.6875 -1.42188
Q18.2656 -1.42188 13.375 4.4375
Q8.5 10.2969 8.5 21.5781" id="BitstreamVeraSans-Roman-75"/>
     <path d="
M64.4062 67.2812
L64.4062 56.8906
Q59.4219 61.5312 53.7812 63.8125
Q48.1406 66.1094 41.7969 66.1094
Q29.2969 66.1094 22.6562 58.4688
Q16.0156 50.8281 16.0156 36.375
Q16.0156 21.9688 22.6562 14.3281
Q29.2969 6.6875 41.7969 6.6875
Q48.1406 6.6875 53.7812 8.98438
Q59.4219 11.2812 64.4062 15.9219
L64.4062 5.60938
Q59.2344 2.09375 53.4375 0.328125
Q47.6562 -1.42188 41.2188 -1.42188
Q24.6562 -1.42188 15.125 8.70312
Q5.60938 18.8438 5.60938 36.375
Q5.60938 53.9531 15.125 64.0781
Q24.6562 74.2188 41.2188 74.2188
Q47.75 74.2188 53.5312 72.4844
Q59.3281 70.75 64.4062 67.2812" id="BitstreamVeraSans-Roman-43"/>
    </defs>
    <g transform="translate(12.522828125 219.620208333)rotate(-90.0)scale(0.11 -0.11)">
     <use xlink:href="#BitstreamVeraSans-Roman-43"/>
     <use x="69.82421875" xlink:href="#BitstreamVeraSans-Roman-6f"/>
     <use x="131.005859375" xlink:href="#BitstreamVeraSans-Roman-75"/>
     <use x="194.384765625" xlink:href="#BitstreamVeraSans-Roman-6e"/>
     <use x="257.763671875" xlink:href="#BitstreamVeraSans-Roman-74"/>
    </g>
   </g>
   <g id="legend_2">
    <g id="text_23">
     <!-- $\sigma$ (pA) -->
     <g transform="translate(229.494514844 168.692978958)scale(0.07634 -0.07634)">
      <use transform="translate(0.0 21.125)" xlink:href="#STIXGeneral-Regular-3c3"/>
      <use transform="translate(54.799987793 21.125)" xlink:href="#BitstreamVeraSans-Roman-20"/>
      <use transform="translate(86.587097168 21.125)" xlink:href="#BitstreamVeraSans-Roman-28"/>
      <use transform="translate(125.600769043 21.125)" xlink:href="#BitstreamVeraSans-Roman-70"/>
      <use transform="translate(189.077331543 21.125)" xlink:href="#BitstreamVeraSans-Roman-41"/>
      <use transform="translate(257.485534668 21.125)" xlink:href="#BitstreamVeraSans-Roman-29"/>
     </g>
    </g>
    <g id="line2d_38">
     <path d="
M225.692 175.639
L236.38 175.639" style="fill:none;stroke:#0000ff;"/>
    </g>
    <g id="line2d_39">
     <g>
      <use style="fill:#0000ff;stroke:#000000;stroke-linecap:butt;stroke-width:0.5;" x="225.692425" xlink:href="#mbfdea2b989" y="175.638726146"/>
      <use style="fill:#0000ff;stroke:#000000;stroke-linecap:butt;stroke-width:0.5;" x="236.380025" xlink:href="#mbfdea2b989" y="175.638726146"/>
     </g>
    </g>
    <g id="text_24">
     <!-- 0 -->
     <g transform="translate(244.777425 178.310626146)scale(0.07634 -0.07634)">
      <use xlink:href="#BitstreamVeraSans-Roman-30"/>
     </g>
    </g>
    <g id="line2d_40">
     <path d="
M225.692 186.844
L236.38 186.844" style="fill:none;stroke:#008000;"/>
    </g>
    <g id="line2d_41">
     <g>
      <use style="fill:#008000;stroke:#000000;stroke-linecap:butt;stroke-width:0.5;" x="225.692425" xlink:href="#mcf010e552c" y="186.844006771"/>
      <use style="fill:#008000;stroke:#000000;stroke-linecap:butt;stroke-width:0.5;" x="236.380025" xlink:href="#mcf010e552c" y="186.844006771"/>
     </g>
    </g>
    <g id="text_25">
     <!-- 150 -->
     <g transform="translate(244.777425 189.515906771)scale(0.07634 -0.07634)">
      <use xlink:href="#BitstreamVeraSans-Roman-31"/>
      <use x="63.623046875" xlink:href="#BitstreamVeraSans-Roman-35"/>
      <use x="127.24609375" xlink:href="#BitstreamVeraSans-Roman-30"/>
     </g>
    </g>
    <g id="line2d_42">
     <path d="
M225.692 198.049
L236.38 198.049" style="fill:none;stroke:#ff0000;"/>
    </g>
    <g id="line2d_43">
     <g>
      <use style="fill:#ff0000;stroke:#000000;stroke-linecap:butt;stroke-width:0.5;" x="225.692425" xlink:href="#mcf91ae3040" y="198.049287396"/>
      <use style="fill:#ff0000;stroke:#000000;stroke-linecap:butt;stroke-width:0.5;" x="236.380025" xlink:href="#mcf91ae3040" y="198.049287396"/>
     </g>
    </g>
    <g id="text_26">
     <!-- 300 -->
     <g transform="translate(244.777425 200.721187396)scale(0.07634 -0.07634)">
      <use xlink:href="#BitstreamVeraSans-Roman-33"/>
      <use x="63.623046875" xlink:href="#BitstreamVeraSans-Roman-30"/>
      <use x="127.24609375" xlink:href="#BitstreamVeraSans-Roman-30"/>
     </g>
    </g>
   </g>
  </g>
 </g>
 <defs>
  <clipPath id="pc378b10156">
   <rect height="96.9333333333" width="202.756875" x="58.143125" y="5.5"/>
  </clipPath>
  <clipPath id="p4f96be1df4">
   <rect height="72.7" width="202.756875" x="58.143125" y="167.533333333"/>
  </clipPath>
 </defs>
</svg>
