<?xml version="1.0" encoding="utf-8"?>
<!-- Generator: Adobe Illustrator 14.0.0, SVG Export Plug-In . SVG Version: 6.00 Build 43363)  -->
<!DOCTYPE svg PUBLIC "-//W3C//DTD SVG 1.1//EN" "http://www.w3.org/Graphics/SVG/1.1/DTD/svg11.dtd">
<svg version="1.1" id="Layer_1" xmlns="http://www.w3.org/2000/svg" xmlns:xlink="http://www.w3.org/1999/xlink" x="0px" y="0px"
	 width="595.28px" height="841.89px" viewBox="0 0 595.28 841.89" enable-background="new 0 0 595.28 841.89" xml:space="preserve">
<g>
	<g>
		<line x1="143.587" y1="270.966" x2="205.964" y2="270.966"/>
		<polygon points="205.235,273.467 209.553,270.974 205.235,268.48 		"/>
	</g>
	<g>
		<line fill="none" stroke="#000000" stroke-width="1.5" x1="143.587" y1="270.966" x2="205.964" y2="270.966"/>
		<polygon points="204.87,274.717 211.347,270.978 204.87,267.238 		"/>
	</g>
</g>
<g>
	<circle fill="#FFFFFF" stroke="#ED1C24" stroke-width="2" cx="122.504" cy="281.836" r="23.722"/>
	
		<text transform="matrix(1 0 0 1 117.165 287.7061)" fill="#ED1C24" stroke="#ED1C24" font-family="'MyriadPro-Bold'" font-size="20">E</text>
</g>
<g>
	<circle fill="#FFFFFF" stroke="#2E3192" stroke-width="2" cx="232.755" cy="281.835" r="23.722"/>
	
		<text transform="matrix(1 0 0 1 229.9053 287.7051)" fill="#2E3192" stroke="#2E3192" font-family="'MyriadPro-Bold'" font-size="20">I</text>
</g>
<g>
	<g>
		<line x1="210.807" y1="292.667" x2="147.79" y2="292.705"/>
		<circle cx="147.79" cy="292.705" r="1.88"/>
	</g>
	<g>
		<line fill="none" stroke="#000000" stroke-width="1.5" x1="210.807" y1="292.667" x2="147.79" y2="292.705"/>
		<circle cx="147.79" cy="292.705" r="2.82"/>
	</g>
</g>
<g>
	<rect x="163.328" y="185.082" fill="#FFFFFF" stroke="#000000" stroke-width="2" width="25.667" height="26.667"/>
	<g>
		<text transform="matrix(1 0 0 1 172.9434 204.2266)" font-family="'MyriadPro-Regular'" font-size="20">I</text>
		<text transform="matrix(0.583 0 0 0.583 177.3633 206.3174)" font-family="'Symbol'" font-size="14">q</text>
	</g>
</g>
<g>
	<g>
		<line x1="174.775" y1="212.749" x2="131.572" y2="254.25"/>
		<polygon points="130.366,251.941 128.979,256.73 133.82,255.537 		"/>
	</g>
	<g>
		<line fill="none" stroke="#000000" stroke-width="1.5" x1="174.775" y1="212.749" x2="131.572" y2="254.25"/>
		<polygon points="129.763,250.787 127.683,257.97 134.944,256.18 		"/>
	</g>
</g>
<g>
	<rect x="109.671" y="185.023" fill="#FFFFFF" stroke="#000000" stroke-width="2" width="25.667" height="26.667"/>
	<g>
		<text transform="matrix(1 0 0 1 114.8647 204.2266)" font-family="'MyriadPro-Regular'" font-size="20">I</text>
		<text transform="matrix(0.583 0 0 0.583 120.2847 206.3174)" font-family="'MyriadPro-Regular'" font-size="14">vel</text>
	</g>
</g>
<g>
	<g>
		<line x1="122.504" y1="211.749" x2="122.504" y2="252"/>
		<polygon points="120.004,251.271 122.497,255.588 124.989,251.271 		"/>
	</g>
	<g>
		<line fill="none" stroke="#000000" stroke-width="1.5" x1="122.504" y1="211.749" x2="122.504" y2="252"/>
		<polygon points="118.753,250.906 122.493,257.383 126.232,250.906 		"/>
	</g>
</g>
<g>
	<g>
		<line x1="175.312" y1="212.998" x2="221.5" y2="254.499"/>
		<polygon points="219.286,255.872 224.164,256.903 222.618,252.163 		"/>
	</g>
	<g>
		<line fill="none" stroke="#000000" stroke-width="1.5" x1="175.312" y1="212.998" x2="221.5" y2="254.499"/>
		<polygon points="218.179,256.558 225.496,258.105 223.178,250.995 		"/>
	</g>
</g>
</svg>
